Jump_normalized_Motion_pl11
version=1
nRows=16
nColumns=43
inDegrees=yes
endheader
time		pelvis_tilt		pelvis_list		pelvis_rotation		pelvis_tx		pelvis_ty		pelvis_tz		hip_flexion_r		hip_adduction_r		hip_rotation_r		knee_angle_r		ankle_angle_r		subtalar_angle_r		mtp_angle_r		hip_flexion_l		hip_adduction_l		hip_rotation_l		knee_angle_l		ankle_angle_l		subtalar_angle_l		mtp_angle_l		lumbar_extension		lumbar_bending		lumbar_rotation		neck_flexion		neck_lateral_bending		neck_rotation		arm_flex_r		arm_add_r		arm_rot_r		elbow_flex_r		pro_sup_r		wrist_flex_r		wrist_dev_r		hand_finger_flex_r		arm_flex_l		arm_add_l		arm_rot_l		elbow_flex_l		pro_sup_l		wrist_flex_l		wrist_dev_l		hand_finger_flex_l		
0.553333		-0.797560		-22.636403		92.312232		0.023296		1.849186		1.622627		52.952605		-4.907861		2.998839		-116.564641		22.493695		-1.052486		-1.491697		53.618011		-0.352874		5.981051		-116.471769		23.428254		-11.795001		10.072348		-38.621876		-2.113287		1.399989		27.435759		1.861960		-4.739780		136.852683		-7.302395		37.732400		50.524031		62.167175		-32.721122		-2.454219		27.591068		132.314915		1.534978		15.537473		58.263271		110.060868		-21.709091		16.845349		90.000210		
0.556263		-0.873970		-22.270215		92.182751		0.023118		1.851809		1.616038		51.921509		-4.991119		3.085866		-116.015427		21.789320		-0.748667		-1.268060		52.576923		-0.412163		5.879194		-115.988236		22.703910		-11.654999		10.469901		-38.801870		-2.200203		1.522929		27.119224		1.800124		-4.824077		137.093748		-7.164678		37.638717		50.312740		61.948591		-32.587481		-2.801910		27.530552		132.583103		1.616245		15.460524		58.119854		110.206134		-21.852316		16.527225		90.000210		
0.559192		-0.942378		-22.015937		92.087170		0.022866		1.854128		1.609512		51.050213		-5.119110		3.146856		-115.513808		21.075518		-0.458830		-1.073298		51.704016		-0.461455		5.779727		-115.527358		21.919254		-11.456142		10.812203		-38.826932		-2.273242		1.663901		26.690135		1.735306		-4.876081		137.287934		-7.103563		37.607489		50.143019		61.773853		-32.489676		-3.051347		27.470159		132.793231		1.704327		15.462556		57.967619		110.325174		-21.951131		16.265057		90.000210		
0.562121		-0.981381		-21.975007		92.006962		0.022623		1.855958		1.603173		50.480708		-5.230920		3.194470		-115.054548		20.168771		-0.117372		-1.071850		51.161820		-0.468494		5.776811		-115.187283		20.949691		-11.102801		10.889162		-38.570307		-2.316337		1.814638		26.062441		1.704482		-4.939202		137.363461		-7.055306		37.596174		50.076169		61.711912		-32.493413		-3.120006		27.427664		132.912674		1.736478		15.476383		57.824785		110.375559		-21.980984		16.170423		90.000210		
0.565051		-1.019951		-21.869601		91.956227		0.022378		1.857913		1.596700		49.853997		-5.359996		3.242497		-114.616525		19.271389		0.201026		-1.054948		50.542604		-0.509876		5.731185		-114.775207		20.012456		-10.809112		10.976786		-38.399822		-2.363652		1.962195		25.530073		1.652564		-5.012379		137.456215		-7.041606		37.554651		49.971635		61.663710		-32.505115		-3.235599		27.374412		133.019459		1.833688		15.497936		57.693516		110.448898		-22.026332		16.028072		90.000210		
0.567980		-1.194659		-21.070951		91.768456		0.022085		1.861115		1.589499		48.429806		-5.555297		3.394754		-114.042008		18.162372		0.471369		-0.513324		49.069304		-0.463541		5.549611		-114.284767		18.874856		-10.897169		11.690665		-39.054735		-2.515374		2.127387		25.216581		1.622211		-5.220367		137.705549		-6.986269		37.619345		49.779811		61.557472		-32.431676		-3.746250		27.163404		133.248933		1.963617		15.354346		57.393752		110.750934		-22.282535		15.282858		90.000210		
0.570909		-1.257664		-20.873294		91.723062		0.021817		1.863086		1.582882		47.751529		-5.717467		3.450588		-113.600395		17.120194		0.740735		-0.329027		48.419814		-0.448961		5.528031		-113.926402		17.703343		-10.680738		11.945606		-38.970030		-2.565015		2.252692		24.592179		1.575481		-5.287009		137.779063		-7.010846		37.692337		49.706837		61.545933		-32.419402		-3.865180		27.054323		133.322872		2.033933		15.415642		57.204874		110.850193		-22.326698		15.056447		90.000210		
0.573838		-1.342793		-20.515124		91.660270		0.021496		1.865381		1.576105		46.906688		-5.891213		3.515247		-113.129914		15.945224		0.973916		-0.014233		47.611595		-0.404135		5.471669		-113.551361		16.425521		-10.590673		12.349288		-39.088666		-2.621749		2.385655		24.055038		1.541587		-5.406975		137.880521		-7.018915		37.768256		49.610652		61.556733		-32.407452		-4.083678		26.889986		133.414819		2.117035		15.426627		56.989602		110.993374		-22.421645		14.707126		90.000210		
0.576768		-1.380986		-20.379971		91.626443		0.021174		1.867158		1.569554		46.363501		-6.025140		3.575356		-112.717809		14.807023		1.258723		-0.033830		47.141323		-0.390594		5.476085		-113.259486		15.135690		-10.240480		12.378453		-38.925383		-2.637182		2.523297		23.344923		1.504797		-5.462149		137.897410		-7.036826		37.842557		49.558758		61.598557		-32.402221		-4.136952		26.839711		133.438707		2.146873		15.536203		56.823924		111.066188		-22.428465		14.635388		90.000210		
0.579697		-1.430996		-20.133467		91.601135		0.020815		1.869187		1.562934		45.718418		-6.153551		3.647949		-112.288720		13.509383		1.472043		-0.056059		46.580247		-0.351999		5.459814		-112.939655		13.736636		-10.014510		12.421690		-38.917355		-2.649138		2.647312		22.732997		1.468141		-5.571397		137.942707		-7.042055		37.913505		49.481889		61.698621		-32.414379		-4.274620		26.765730		133.485986		2.192919		15.611988		56.647023		111.174482		-22.481293		14.508655		90.000210		
0.582626		-1.493189		-19.805166		91.575613		0.020460		1.871343		1.556245		45.014016		-6.291207		3.711317		-111.851615		12.131174		1.588950		-0.068426		45.949252		-0.308418		5.419651		-112.595900		12.236947		-9.904254		12.498431		-39.013080		-2.670462		2.766414		22.161857		1.422724		-5.696685		138.016329		-7.055061		38.018132		49.370778		61.858700		-32.423718		-4.454905		26.676146		133.534866		2.246279		15.706347		56.455194		111.320941		-22.571919		14.339491		90.000210		
0.585556		-1.610850		-19.133468		91.529941		0.020089		1.874114		1.549254		43.936040		-6.492614		3.735220		-111.365354		10.544637		1.325762		0.174878		44.909722		-0.234586		5.267107		-112.145063		10.528422		-10.402157		12.973169		-39.542808		-2.735024		2.880000		21.862772		1.358548		-5.899666		138.216355		-7.070738		38.191984		49.142573		62.230058		-32.410359		-4.852165		26.461896		133.648936		2.351242		15.775018		56.230744		111.613503		-22.873642		13.894358		90.000210		
0.588485		-1.640481		-18.965191		91.509312		0.019721		1.875773		1.542812		43.500071		-6.599761		3.817598		-110.994569		9.193472		1.588372		0.088576		44.570240		-0.226925		5.248998		-111.873325		8.964046		-9.996753		13.023724		-39.433005		-2.731152		3.023514		21.093306		1.313854		-5.946542		138.215742		-7.107204		38.321949		49.070673		62.321168		-32.389376		-4.854240		26.419548		133.639443		2.349520		15.979105		56.029430		111.700763		-22.897708		13.859343		90.000210		
0.591414		-1.696516		-18.624237		91.474896		0.019404		1.877824		1.536270		42.922709		-6.700481		3.878478		-110.582606		7.413770		1.414024		0.060218		44.036754		-0.203142		5.158588		-111.510920		7.128626		-10.172601		13.423066		-39.584259		-2.756401		3.151619		20.669263		1.276111		-6.118145		138.319278		-7.129481		38.491005		48.924465		62.612420		-32.418674		-5.046623		26.278045		133.682092		2.366966		16.151625		55.871958		111.871079		-23.123506		13.683719		90.000210		
0.594343		-1.734896		-18.336791		91.435422		0.019083		1.879594		1.529802		42.429199		-6.803504		3.940641		-110.197851		5.795989		1.381333		0.009042		43.605780		-0.208380		5.087631		-111.191044		5.353788		-10.168863		13.776547		-39.644467		-2.772635		3.291505		20.052010		1.222673		-6.217544		138.364777		-7.168902		38.672950		48.803277		62.837197		-32.424964		-5.142308		26.175550		133.701207		2.371046		16.375539		55.672671		112.011818		-23.287614		13.578967		90.000210		
0.597273		-1.755504		-18.163827		91.399128		0.018945		1.881035		1.523405		42.096564		-6.922658		3.943461		-109.856144		4.207168		1.583409		-0.156988		43.336618		-0.272325		5.042100		-110.899237		3.700787		-9.888344		13.891509		-39.557082		-2.805141		3.430730		19.424644		1.195289		-6.284260		138.343325		-7.223873		38.827805		48.689751		62.951876		-32.437562		-5.141338		26.131861		133.659709		2.369595		16.630986		55.519534		112.099643		-23.327975		13.571814		90.000210		
